<?xml version="1.0" encoding="UTF-8" standalone="no"?>
<!DOCTYPE svg PUBLIC "-//W3C//DTD SVG 1.1//EN"
 "http://www.w3.org/Graphics/SVG/1.1/DTD/svg11.dtd">
<!-- Generated by graphviz version 2.43.0 (0)
 -->
<!-- Title: %3 Pages: 1 -->
<svg width="1367pt" height="620pt"
 viewBox="0.00 0.00 1367.00 620.00" xmlns="http://www.w3.org/2000/svg" xmlns:xlink="http://www.w3.org/1999/xlink">
<g id="graph0" class="graph" transform="scale(1 1) rotate(0) translate(4 616)">
<title>%3</title>
<polygon fill="white" stroke="transparent" points="-4,4 -4,-616 1363,-616 1363,4 -4,4"/>
<!-- [root] aws_eip.priv1_eip (expand) -->
<g id="node1" class="node">
<title>[root] aws_eip.priv1_eip (expand)</title>
<polygon fill="none" stroke="black" points="437,-396 294,-396 294,-360 437,-360 437,-396"/>
<text text-anchor="middle" x="365.5" y="-374.3" font-family="Times,serif" font-size="14.00">aws_eip.priv1_eip</text>
</g>
<!-- [root] provider[&quot;registry.terraform.io/hashicorp/aws&quot;] -->
<g id="node15" class="node">
<title>[root] provider[&quot;registry.terraform.io/hashicorp/aws&quot;]</title>
<polygon fill="none" stroke="black" points="451.5,-108 126.24,-90 451.5,-72 776.76,-90 451.5,-108"/>
<text text-anchor="middle" x="451.5" y="-86.3" font-family="Times,serif" font-size="14.00">provider[&quot;registry.terraform.io/hashicorp/aws&quot;]</text>
</g>
<!-- [root] aws_eip.priv1_eip (expand)&#45;&gt;[root] provider[&quot;registry.terraform.io/hashicorp/aws&quot;] -->
<g id="edge1" class="edge">
<title>[root] aws_eip.priv1_eip (expand)&#45;&gt;[root] provider[&quot;registry.terraform.io/hashicorp/aws&quot;]</title>
<path fill="none" stroke="black" d="M367.05,-359.97C371.09,-320.56 384,-220.62 416.5,-144 420.65,-134.21 426.65,-124.27 432.51,-115.68"/>
<polygon fill="black" stroke="black" points="435.53,-117.47 438.48,-107.29 429.83,-113.41 435.53,-117.47"/>
</g>
<!-- [root] aws_eip.priv2_eip (expand) -->
<g id="node2" class="node">
<title>[root] aws_eip.priv2_eip (expand)</title>
<polygon fill="none" stroke="black" points="537,-324 394,-324 394,-288 537,-288 537,-324"/>
<text text-anchor="middle" x="465.5" y="-302.3" font-family="Times,serif" font-size="14.00">aws_eip.priv2_eip</text>
</g>
<!-- [root] aws_eip.priv2_eip (expand)&#45;&gt;[root] provider[&quot;registry.terraform.io/hashicorp/aws&quot;] -->
<g id="edge2" class="edge">
<title>[root] aws_eip.priv2_eip (expand)&#45;&gt;[root] provider[&quot;registry.terraform.io/hashicorp/aws&quot;]</title>
<path fill="none" stroke="black" d="M446.46,-287.84C437.32,-278.3 427.33,-265.62 422.5,-252 406.24,-206.15 424.72,-149.58 438.73,-117.16"/>
<polygon fill="black" stroke="black" points="441.98,-118.47 442.89,-107.92 435.6,-115.6 441.98,-118.47"/>
</g>
<!-- [root] aws_eip.pub_eip (expand) -->
<g id="node3" class="node">
<title>[root] aws_eip.pub_eip (expand)</title>
<polygon fill="none" stroke="black" points="565,-252 432,-252 432,-216 565,-216 565,-252"/>
<text text-anchor="middle" x="498.5" y="-230.3" font-family="Times,serif" font-size="14.00">aws_eip.pub_eip</text>
</g>
<!-- [root] aws_eip.pub_eip (expand)&#45;&gt;[root] provider[&quot;registry.terraform.io/hashicorp/aws&quot;] -->
<g id="edge3" class="edge">
<title>[root] aws_eip.pub_eip (expand)&#45;&gt;[root] provider[&quot;registry.terraform.io/hashicorp/aws&quot;]</title>
<path fill="none" stroke="black" d="M492.83,-215.87C484.74,-191.43 469.81,-146.33 460.29,-117.55"/>
<polygon fill="black" stroke="black" points="463.51,-116.14 457.04,-107.75 456.86,-118.34 463.51,-116.14"/>
</g>
<!-- [root] aws_internet_gateway.main_igw (expand) -->
<g id="node4" class="node">
<title>[root] aws_internet_gateway.main_igw (expand)</title>
<polygon fill="none" stroke="black" points="1186,-252 941,-252 941,-216 1186,-216 1186,-252"/>
<text text-anchor="middle" x="1063.5" y="-230.3" font-family="Times,serif" font-size="14.00">aws_internet_gateway.main_igw</text>
</g>
<!-- [root] aws_vpc.main (expand) -->
<g id="node14" class="node">
<title>[root] aws_vpc.main (expand)</title>
<polygon fill="none" stroke="black" points="1085.5,-180 969.5,-180 969.5,-144 1085.5,-144 1085.5,-180"/>
<text text-anchor="middle" x="1027.5" y="-158.3" font-family="Times,serif" font-size="14.00">aws_vpc.main</text>
</g>
<!-- [root] aws_internet_gateway.main_igw (expand)&#45;&gt;[root] aws_vpc.main (expand) -->
<g id="edge4" class="edge">
<title>[root] aws_internet_gateway.main_igw (expand)&#45;&gt;[root] aws_vpc.main (expand)</title>
<path fill="none" stroke="black" d="M1054.6,-215.7C1050.5,-207.73 1045.55,-198.1 1041.01,-189.26"/>
<polygon fill="black" stroke="black" points="1043.98,-187.4 1036.3,-180.1 1037.76,-190.6 1043.98,-187.4"/>
</g>
<!-- [root] aws_nat_gateway.public (expand) -->
<g id="node5" class="node">
<title>[root] aws_nat_gateway.public (expand)</title>
<polygon fill="none" stroke="black" points="929,-324 742,-324 742,-288 929,-288 929,-324"/>
<text text-anchor="middle" x="835.5" y="-302.3" font-family="Times,serif" font-size="14.00">aws_nat_gateway.public</text>
</g>
<!-- [root] aws_nat_gateway.public (expand)&#45;&gt;[root] aws_eip.pub_eip (expand) -->
<g id="edge5" class="edge">
<title>[root] aws_nat_gateway.public (expand)&#45;&gt;[root] aws_eip.pub_eip (expand)</title>
<path fill="none" stroke="black" d="M748.66,-287.96C700.19,-278.32 638.45,-265.85 575.29,-252.36"/>
<polygon fill="black" stroke="black" points="575.65,-248.86 565.14,-250.19 574.18,-255.71 575.65,-248.86"/>
</g>
<!-- [root] aws_nat_gateway.public (expand)&#45;&gt;[root] aws_internet_gateway.main_igw (expand) -->
<g id="edge6" class="edge">
<title>[root] aws_nat_gateway.public (expand)&#45;&gt;[root] aws_internet_gateway.main_igw (expand)</title>
<path fill="none" stroke="black" d="M890.98,-287.97C923.26,-278.06 964.11,-265.51 997.96,-255.12"/>
<polygon fill="black" stroke="black" points="999.24,-258.39 1007.77,-252.11 997.18,-251.7 999.24,-258.39"/>
</g>
<!-- [root] aws_subnet.public (expand) -->
<g id="node13" class="node">
<title>[root] aws_subnet.public (expand)</title>
<polygon fill="none" stroke="black" points="922.5,-252 774.5,-252 774.5,-216 922.5,-216 922.5,-252"/>
<text text-anchor="middle" x="848.5" y="-230.3" font-family="Times,serif" font-size="14.00">aws_subnet.public</text>
</g>
<!-- [root] aws_nat_gateway.public (expand)&#45;&gt;[root] aws_subnet.public (expand) -->
<g id="edge7" class="edge">
<title>[root] aws_nat_gateway.public (expand)&#45;&gt;[root] aws_subnet.public (expand)</title>
<path fill="none" stroke="black" d="M838.71,-287.7C840.15,-279.98 841.87,-270.71 843.46,-262.11"/>
<polygon fill="black" stroke="black" points="846.94,-262.58 845.32,-252.1 840.06,-261.3 846.94,-262.58"/>
</g>
<!-- [root] aws_route_table.private (expand) -->
<g id="node6" class="node">
<title>[root] aws_route_table.private (expand)</title>
<polygon fill="none" stroke="black" points="926.5,-396 738.5,-396 738.5,-360 926.5,-360 926.5,-396"/>
<text text-anchor="middle" x="832.5" y="-374.3" font-family="Times,serif" font-size="14.00">aws_route_table.private</text>
</g>
<!-- [root] aws_route_table.private (expand)&#45;&gt;[root] aws_nat_gateway.public (expand) -->
<g id="edge8" class="edge">
<title>[root] aws_route_table.private (expand)&#45;&gt;[root] aws_nat_gateway.public (expand)</title>
<path fill="none" stroke="black" d="M833.24,-359.7C833.57,-351.98 833.97,-342.71 834.34,-334.11"/>
<polygon fill="black" stroke="black" points="837.84,-334.25 834.77,-324.1 830.84,-333.95 837.84,-334.25"/>
</g>
<!-- [root] aws_route_table.public (expand) -->
<g id="node7" class="node">
<title>[root] aws_route_table.public (expand)</title>
<polygon fill="none" stroke="black" points="1166.5,-324 986.5,-324 986.5,-288 1166.5,-288 1166.5,-324"/>
<text text-anchor="middle" x="1076.5" y="-302.3" font-family="Times,serif" font-size="14.00">aws_route_table.public</text>
</g>
<!-- [root] aws_route_table.public (expand)&#45;&gt;[root] aws_internet_gateway.main_igw (expand) -->
<g id="edge9" class="edge">
<title>[root] aws_route_table.public (expand)&#45;&gt;[root] aws_internet_gateway.main_igw (expand)</title>
<path fill="none" stroke="black" d="M1073.29,-287.7C1071.85,-279.98 1070.13,-270.71 1068.54,-262.11"/>
<polygon fill="black" stroke="black" points="1071.94,-261.3 1066.68,-252.1 1065.06,-262.58 1071.94,-261.3"/>
</g>
<!-- [root] aws_route_table_association.dbprivate (expand) -->
<g id="node8" class="node">
<title>[root] aws_route_table_association.dbprivate (expand)</title>
<polygon fill="none" stroke="black" points="785.5,-468 493.5,-468 493.5,-432 785.5,-432 785.5,-468"/>
<text text-anchor="middle" x="639.5" y="-446.3" font-family="Times,serif" font-size="14.00">aws_route_table_association.dbprivate</text>
</g>
<!-- [root] aws_route_table_association.dbprivate (expand)&#45;&gt;[root] aws_route_table.private (expand) -->
<g id="edge10" class="edge">
<title>[root] aws_route_table_association.dbprivate (expand)&#45;&gt;[root] aws_route_table.private (expand)</title>
<path fill="none" stroke="black" d="M686.71,-431.88C713.57,-422.14 747.38,-409.87 775.68,-399.61"/>
<polygon fill="black" stroke="black" points="777.23,-402.77 785.44,-396.07 774.85,-396.19 777.23,-402.77"/>
</g>
<!-- [root] aws_subnet.dbprivate (expand) -->
<g id="node11" class="node">
<title>[root] aws_subnet.dbprivate (expand)</title>
<polygon fill="none" stroke="black" points="756,-252 583,-252 583,-216 756,-216 756,-252"/>
<text text-anchor="middle" x="669.5" y="-230.3" font-family="Times,serif" font-size="14.00">aws_subnet.dbprivate</text>
</g>
<!-- [root] aws_route_table_association.dbprivate (expand)&#45;&gt;[root] aws_subnet.dbprivate (expand) -->
<g id="edge11" class="edge">
<title>[root] aws_route_table_association.dbprivate (expand)&#45;&gt;[root] aws_subnet.dbprivate (expand)</title>
<path fill="none" stroke="black" d="M641.9,-431.85C647.09,-394.83 659.38,-307.18 665.66,-262.39"/>
<polygon fill="black" stroke="black" points="669.16,-262.62 667.08,-252.23 662.23,-261.65 669.16,-262.62"/>
</g>
<!-- [root] aws_route_table_association.private (expand) -->
<g id="node9" class="node">
<title>[root] aws_route_table_association.private (expand)</title>
<polygon fill="none" stroke="black" points="1077.5,-468 803.5,-468 803.5,-432 1077.5,-432 1077.5,-468"/>
<text text-anchor="middle" x="940.5" y="-446.3" font-family="Times,serif" font-size="14.00">aws_route_table_association.private</text>
</g>
<!-- [root] aws_route_table_association.private (expand)&#45;&gt;[root] aws_route_table.private (expand) -->
<g id="edge12" class="edge">
<title>[root] aws_route_table_association.private (expand)&#45;&gt;[root] aws_route_table.private (expand)</title>
<path fill="none" stroke="black" d="M914.08,-431.88C900.09,-422.81 882.72,-411.55 867.61,-401.76"/>
<polygon fill="black" stroke="black" points="869.32,-398.69 859.02,-396.19 865.51,-404.57 869.32,-398.69"/>
</g>
<!-- [root] aws_subnet.private (expand) -->
<g id="node12" class="node">
<title>[root] aws_subnet.private (expand)</title>
<polygon fill="none" stroke="black" points="1359,-252 1204,-252 1204,-216 1359,-216 1359,-252"/>
<text text-anchor="middle" x="1281.5" y="-230.3" font-family="Times,serif" font-size="14.00">aws_subnet.private</text>
</g>
<!-- [root] aws_route_table_association.private (expand)&#45;&gt;[root] aws_subnet.private (expand) -->
<g id="edge13" class="edge">
<title>[root] aws_route_table_association.private (expand)&#45;&gt;[root] aws_subnet.private (expand)</title>
<path fill="none" stroke="black" d="M1077.6,-435.54C1136.66,-427.25 1197.26,-414.56 1219.5,-396 1259.93,-362.26 1274.07,-298.93 1278.96,-262.56"/>
<polygon fill="black" stroke="black" points="1282.49,-262.55 1280.2,-252.2 1275.54,-261.72 1282.49,-262.55"/>
</g>
<!-- [root] aws_route_table_association.public (expand) -->
<g id="node10" class="node">
<title>[root] aws_route_table_association.public (expand)</title>
<polygon fill="none" stroke="black" points="1210.5,-396 944.5,-396 944.5,-360 1210.5,-360 1210.5,-396"/>
<text text-anchor="middle" x="1077.5" y="-374.3" font-family="Times,serif" font-size="14.00">aws_route_table_association.public</text>
</g>
<!-- [root] aws_route_table_association.public (expand)&#45;&gt;[root] aws_route_table.public (expand) -->
<g id="edge14" class="edge">
<title>[root] aws_route_table_association.public (expand)&#45;&gt;[root] aws_route_table.public (expand)</title>
<path fill="none" stroke="black" d="M1077.25,-359.7C1077.14,-351.98 1077.01,-342.71 1076.89,-334.11"/>
<polygon fill="black" stroke="black" points="1080.39,-334.05 1076.74,-324.1 1073.39,-334.15 1080.39,-334.05"/>
</g>
<!-- [root] aws_route_table_association.public (expand)&#45;&gt;[root] aws_subnet.public (expand) -->
<g id="edge15" class="edge">
<title>[root] aws_route_table_association.public (expand)&#45;&gt;[root] aws_subnet.public (expand)</title>
<path fill="none" stroke="black" d="M1040.14,-359.93C1020.78,-350.41 997.15,-337.73 977.5,-324 957.9,-310.3 956.76,-302.19 937.5,-288 922.49,-276.94 905.05,-266.15 889.6,-257.22"/>
<polygon fill="black" stroke="black" points="891.19,-254.1 880.77,-252.19 887.72,-260.18 891.19,-254.1"/>
</g>
<!-- [root] aws_subnet.dbprivate (expand)&#45;&gt;[root] aws_vpc.main (expand) -->
<g id="edge16" class="edge">
<title>[root] aws_subnet.dbprivate (expand)&#45;&gt;[root] aws_vpc.main (expand)</title>
<path fill="none" stroke="black" d="M756.07,-217.54C827.13,-204.81 921.01,-187.86 959.41,-180.09"/>
<polygon fill="black" stroke="black" points="960.38,-183.46 969.45,-177.99 958.95,-176.61 960.38,-183.46"/>
</g>
<!-- [root] var.availability_zone -->
<g id="node17" class="node">
<title>[root] var.availability_zone</title>
<polygon fill="none" stroke="black" points="945,-180 790,-180 790,-144 951,-144 951,-174 945,-180"/>
<polyline fill="none" stroke="black" points="945,-180 945,-174 "/>
<polyline fill="none" stroke="black" points="951,-174 945,-174 "/>
<text text-anchor="middle" x="870.5" y="-158.3" font-family="Times,serif" font-size="14.00">var.availability_zone</text>
</g>
<!-- [root] aws_subnet.dbprivate (expand)&#45;&gt;[root] var.availability_zone -->
<g id="edge17" class="edge">
<title>[root] aws_subnet.dbprivate (expand)&#45;&gt;[root] var.availability_zone</title>
<path fill="none" stroke="black" d="M718.41,-215.97C746.5,-206.19 781.96,-193.84 811.57,-183.52"/>
<polygon fill="black" stroke="black" points="813.07,-186.71 821.37,-180.11 810.77,-180.09 813.07,-186.71"/>
</g>
<!-- [root] var.db&#45;subnet -->
<g id="node18" class="node">
<title>[root] var.db&#45;subnet</title>
<polygon fill="none" stroke="black" points="624.5,-180 516.5,-180 516.5,-144 630.5,-144 630.5,-174 624.5,-180"/>
<polyline fill="none" stroke="black" points="624.5,-180 624.5,-174 "/>
<polyline fill="none" stroke="black" points="630.5,-174 624.5,-174 "/>
<text text-anchor="middle" x="573.5" y="-158.3" font-family="Times,serif" font-size="14.00">var.db&#45;subnet</text>
</g>
<!-- [root] aws_subnet.dbprivate (expand)&#45;&gt;[root] var.db&#45;subnet -->
<g id="edge18" class="edge">
<title>[root] aws_subnet.dbprivate (expand)&#45;&gt;[root] var.db&#45;subnet</title>
<path fill="none" stroke="black" d="M645.77,-215.7C633.56,-206.8 618.51,-195.82 605.32,-186.2"/>
<polygon fill="black" stroke="black" points="607.1,-183.17 596.96,-180.1 602.98,-188.82 607.1,-183.17"/>
</g>
<!-- [root] aws_subnet.private (expand)&#45;&gt;[root] aws_vpc.main (expand) -->
<g id="edge19" class="edge">
<title>[root] aws_subnet.private (expand)&#45;&gt;[root] aws_vpc.main (expand)</title>
<path fill="none" stroke="black" d="M1219.69,-215.97C1182.22,-205.64 1134.35,-192.45 1095.77,-181.81"/>
<polygon fill="black" stroke="black" points="1096.23,-178.31 1085.66,-179.03 1094.37,-185.06 1096.23,-178.31"/>
</g>
<!-- [root] aws_subnet.private (expand)&#45;&gt;[root] var.availability_zone -->
<g id="edge20" class="edge">
<title>[root] aws_subnet.private (expand)&#45;&gt;[root] var.availability_zone</title>
<path fill="none" stroke="black" d="M1203.71,-217.47C1200.94,-216.96 1198.2,-216.47 1195.5,-216 1094.58,-198.3 1066.34,-197.82 961.48,-180.13"/>
<polygon fill="black" stroke="black" points="961.87,-176.65 951.43,-178.42 960.7,-183.55 961.87,-176.65"/>
</g>
<!-- [root] var.priv&#45;subnet -->
<g id="node22" class="node">
<title>[root] var.priv&#45;subnet</title>
<polygon fill="none" stroke="black" points="1338,-180 1219,-180 1219,-144 1344,-144 1344,-174 1338,-180"/>
<polyline fill="none" stroke="black" points="1338,-180 1338,-174 "/>
<polyline fill="none" stroke="black" points="1344,-174 1338,-174 "/>
<text text-anchor="middle" x="1281.5" y="-158.3" font-family="Times,serif" font-size="14.00">var.priv&#45;subnet</text>
</g>
<!-- [root] aws_subnet.private (expand)&#45;&gt;[root] var.priv&#45;subnet -->
<g id="edge21" class="edge">
<title>[root] aws_subnet.private (expand)&#45;&gt;[root] var.priv&#45;subnet</title>
<path fill="none" stroke="black" d="M1281.5,-215.7C1281.5,-207.98 1281.5,-198.71 1281.5,-190.11"/>
<polygon fill="black" stroke="black" points="1285,-190.1 1281.5,-180.1 1278,-190.1 1285,-190.1"/>
</g>
<!-- [root] aws_subnet.public (expand)&#45;&gt;[root] aws_vpc.main (expand) -->
<g id="edge22" class="edge">
<title>[root] aws_subnet.public (expand)&#45;&gt;[root] aws_vpc.main (expand)</title>
<path fill="none" stroke="black" d="M892.29,-215.88C917.08,-206.18 948.28,-193.98 974.46,-183.74"/>
<polygon fill="black" stroke="black" points="975.82,-186.97 983.85,-180.07 973.27,-180.45 975.82,-186.97"/>
</g>
<!-- [root] aws_subnet.public (expand)&#45;&gt;[root] var.availability_zone -->
<g id="edge23" class="edge">
<title>[root] aws_subnet.public (expand)&#45;&gt;[root] var.availability_zone</title>
<path fill="none" stroke="black" d="M853.94,-215.7C856.39,-207.9 859.34,-198.51 862.07,-189.83"/>
<polygon fill="black" stroke="black" points="865.46,-190.69 865.12,-180.1 858.79,-188.59 865.46,-190.69"/>
</g>
<!-- [root] var.pub&#45;subnet -->
<g id="node23" class="node">
<title>[root] var.pub&#45;subnet</title>
<polygon fill="none" stroke="black" points="766,-180 649,-180 649,-144 772,-144 772,-174 766,-180"/>
<polyline fill="none" stroke="black" points="766,-180 766,-174 "/>
<polyline fill="none" stroke="black" points="772,-174 766,-174 "/>
<text text-anchor="middle" x="710.5" y="-158.3" font-family="Times,serif" font-size="14.00">var.pub&#45;subnet</text>
</g>
<!-- [root] aws_subnet.public (expand)&#45;&gt;[root] var.pub&#45;subnet -->
<g id="edge24" class="edge">
<title>[root] aws_subnet.public (expand)&#45;&gt;[root] var.pub&#45;subnet</title>
<path fill="none" stroke="black" d="M814.74,-215.88C796.28,-206.51 773.22,-194.81 753.48,-184.8"/>
<polygon fill="black" stroke="black" points="754.89,-181.59 744.39,-180.19 751.72,-187.83 754.89,-181.59"/>
</g>
<!-- [root] aws_vpc.main (expand)&#45;&gt;[root] provider[&quot;registry.terraform.io/hashicorp/aws&quot;] -->
<g id="edge25" class="edge">
<title>[root] aws_vpc.main (expand)&#45;&gt;[root] provider[&quot;registry.terraform.io/hashicorp/aws&quot;]</title>
<path fill="none" stroke="black" d="M969.14,-145.66C966.23,-145.06 963.34,-144.5 960.5,-144 841.14,-122.76 704.41,-109.1 602.73,-100.98"/>
<polygon fill="black" stroke="black" points="602.94,-97.49 592.7,-100.19 602.39,-104.47 602.94,-97.49"/>
</g>
<!-- [root] var.environment -->
<g id="node20" class="node">
<title>[root] var.environment</title>
<polygon fill="none" stroke="black" points="962.5,-108 834.5,-108 834.5,-72 968.5,-72 968.5,-102 962.5,-108"/>
<polyline fill="none" stroke="black" points="962.5,-108 962.5,-102 "/>
<polyline fill="none" stroke="black" points="968.5,-102 962.5,-102 "/>
<text text-anchor="middle" x="901.5" y="-86.3" font-family="Times,serif" font-size="14.00">var.environment</text>
</g>
<!-- [root] aws_vpc.main (expand)&#45;&gt;[root] var.environment -->
<g id="edge26" class="edge">
<title>[root] aws_vpc.main (expand)&#45;&gt;[root] var.environment</title>
<path fill="none" stroke="black" d="M996.68,-143.88C980.05,-134.64 959.34,-123.13 941.48,-113.21"/>
<polygon fill="black" stroke="black" points="942.88,-109.99 932.44,-108.19 939.48,-116.11 942.88,-109.99"/>
</g>
<!-- [root] var.name -->
<g id="node21" class="node">
<title>[root] var.name</title>
<polygon fill="none" stroke="black" points="1062.5,-108 986.5,-108 986.5,-72 1068.5,-72 1068.5,-102 1062.5,-108"/>
<polyline fill="none" stroke="black" points="1062.5,-108 1062.5,-102 "/>
<polyline fill="none" stroke="black" points="1068.5,-102 1062.5,-102 "/>
<text text-anchor="middle" x="1027.5" y="-86.3" font-family="Times,serif" font-size="14.00">var.name</text>
</g>
<!-- [root] aws_vpc.main (expand)&#45;&gt;[root] var.name -->
<g id="edge27" class="edge">
<title>[root] aws_vpc.main (expand)&#45;&gt;[root] var.name</title>
<path fill="none" stroke="black" d="M1027.5,-143.7C1027.5,-135.98 1027.5,-126.71 1027.5,-118.11"/>
<polygon fill="black" stroke="black" points="1031,-118.1 1027.5,-108.1 1024,-118.1 1031,-118.1"/>
</g>
<!-- [root] var.vpc&#45;cidr -->
<g id="node25" class="node">
<title>[root] var.vpc&#45;cidr</title>
<polygon fill="none" stroke="black" points="1180.5,-108 1086.5,-108 1086.5,-72 1186.5,-72 1186.5,-102 1180.5,-108"/>
<polyline fill="none" stroke="black" points="1180.5,-108 1180.5,-102 "/>
<polyline fill="none" stroke="black" points="1186.5,-102 1180.5,-102 "/>
<text text-anchor="middle" x="1136.5" y="-86.3" font-family="Times,serif" font-size="14.00">var.vpc&#45;cidr</text>
</g>
<!-- [root] aws_vpc.main (expand)&#45;&gt;[root] var.vpc&#45;cidr -->
<g id="edge28" class="edge">
<title>[root] aws_vpc.main (expand)&#45;&gt;[root] var.vpc&#45;cidr</title>
<path fill="none" stroke="black" d="M1054.16,-143.88C1068.28,-134.81 1085.81,-123.55 1101.06,-113.76"/>
<polygon fill="black" stroke="black" points="1103.21,-116.54 1109.73,-108.19 1099.43,-110.65 1103.21,-116.54"/>
</g>
<!-- [root] var.region -->
<g id="node24" class="node">
<title>[root] var.region</title>
<polygon fill="none" stroke="black" points="490,-36 407,-36 407,0 496,0 496,-30 490,-36"/>
<polyline fill="none" stroke="black" points="490,-36 490,-30 "/>
<polyline fill="none" stroke="black" points="496,-30 490,-30 "/>
<text text-anchor="middle" x="451.5" y="-14.3" font-family="Times,serif" font-size="14.00">var.region</text>
</g>
<!-- [root] provider[&quot;registry.terraform.io/hashicorp/aws&quot;]&#45;&gt;[root] var.region -->
<g id="edge34" class="edge">
<title>[root] provider[&quot;registry.terraform.io/hashicorp/aws&quot;]&#45;&gt;[root] var.region</title>
<path fill="none" stroke="black" d="M451.5,-71.7C451.5,-63.98 451.5,-54.71 451.5,-46.11"/>
<polygon fill="black" stroke="black" points="455,-46.1 451.5,-36.1 448,-46.1 455,-46.1"/>
</g>
<!-- [root] var.all_cidr_block -->
<g id="node16" class="node">
<title>[root] var.all_cidr_block</title>
<polygon fill="none" stroke="black" points="133,-540 0,-540 0,-504 139,-504 139,-534 133,-540"/>
<polyline fill="none" stroke="black" points="133,-540 133,-534 "/>
<polyline fill="none" stroke="black" points="139,-534 133,-534 "/>
<text text-anchor="middle" x="69.5" y="-518.3" font-family="Times,serif" font-size="14.00">var.all_cidr_block</text>
</g>
<!-- [root] var.ec2_instance_type -->
<g id="node19" class="node">
<title>[root] var.ec2_instance_type</title>
<polygon fill="none" stroke="black" points="324,-540 157,-540 157,-504 330,-504 330,-534 324,-540"/>
<polyline fill="none" stroke="black" points="324,-540 324,-534 "/>
<polyline fill="none" stroke="black" points="330,-534 324,-534 "/>
<text text-anchor="middle" x="243.5" y="-518.3" font-family="Times,serif" font-size="14.00">var.ec2_instance_type</text>
</g>
<!-- [root] provider[&quot;registry.terraform.io/hashicorp/aws&quot;] (close) -->
<g id="node26" class="node">
<title>[root] provider[&quot;registry.terraform.io/hashicorp/aws&quot;] (close)</title>
<ellipse fill="none" stroke="black" cx="639.5" cy="-522" rx="291.65" ry="18"/>
<text text-anchor="middle" x="639.5" y="-518.3" font-family="Times,serif" font-size="14.00">[root] provider[&quot;registry.terraform.io/hashicorp/aws&quot;] (close)</text>
</g>
<!-- [root] provider[&quot;registry.terraform.io/hashicorp/aws&quot;] (close)&#45;&gt;[root] aws_eip.priv1_eip (expand) -->
<g id="edge29" class="edge">
<title>[root] provider[&quot;registry.terraform.io/hashicorp/aws&quot;] (close)&#45;&gt;[root] aws_eip.priv1_eip (expand)</title>
<path fill="none" stroke="black" d="M545.66,-504.84C514.26,-496.81 480.03,-485.05 451.5,-468 424.06,-451.6 399.48,-424.21 383.69,-404.14"/>
<polygon fill="black" stroke="black" points="386.34,-401.85 377.48,-396.04 380.79,-406.11 386.34,-401.85"/>
</g>
<!-- [root] provider[&quot;registry.terraform.io/hashicorp/aws&quot;] (close)&#45;&gt;[root] aws_eip.priv2_eip (expand) -->
<g id="edge30" class="edge">
<title>[root] provider[&quot;registry.terraform.io/hashicorp/aws&quot;] (close)&#45;&gt;[root] aws_eip.priv2_eip (expand)</title>
<path fill="none" stroke="black" d="M539.52,-504.94C518.53,-497.07 498.53,-485.37 484.5,-468 453.73,-429.9 456.01,-369.22 460.63,-334.25"/>
<polygon fill="black" stroke="black" points="464.1,-334.68 462.1,-324.27 457.18,-333.65 464.1,-334.68"/>
</g>
<!-- [root] provider[&quot;registry.terraform.io/hashicorp/aws&quot;] (close)&#45;&gt;[root] aws_route_table_association.dbprivate (expand) -->
<g id="edge31" class="edge">
<title>[root] provider[&quot;registry.terraform.io/hashicorp/aws&quot;] (close)&#45;&gt;[root] aws_route_table_association.dbprivate (expand)</title>
<path fill="none" stroke="black" d="M639.5,-503.7C639.5,-495.98 639.5,-486.71 639.5,-478.11"/>
<polygon fill="black" stroke="black" points="643,-478.1 639.5,-468.1 636,-478.1 643,-478.1"/>
</g>
<!-- [root] provider[&quot;registry.terraform.io/hashicorp/aws&quot;] (close)&#45;&gt;[root] aws_route_table_association.private (expand) -->
<g id="edge32" class="edge">
<title>[root] provider[&quot;registry.terraform.io/hashicorp/aws&quot;] (close)&#45;&gt;[root] aws_route_table_association.private (expand)</title>
<path fill="none" stroke="black" d="M710.45,-504.5C754.41,-494.28 811.09,-481.1 857.18,-470.38"/>
<polygon fill="black" stroke="black" points="858.2,-473.73 867.14,-468.06 856.61,-466.92 858.2,-473.73"/>
</g>
<!-- [root] provider[&quot;registry.terraform.io/hashicorp/aws&quot;] (close)&#45;&gt;[root] aws_route_table_association.public (expand) -->
<g id="edge33" class="edge">
<title>[root] provider[&quot;registry.terraform.io/hashicorp/aws&quot;] (close)&#45;&gt;[root] aws_route_table_association.public (expand)</title>
<path fill="none" stroke="black" d="M843.3,-509.09C953.07,-500.54 1069.52,-487.11 1086.5,-468 1101.41,-451.21 1096.61,-425 1089.61,-405.37"/>
<polygon fill="black" stroke="black" points="1092.86,-404.08 1085.95,-396.05 1086.35,-406.64 1092.86,-404.08"/>
</g>
<!-- [root] root -->
<g id="node27" class="node">
<title>[root] root</title>
<ellipse fill="none" stroke="black" cx="243.5" cy="-594" rx="58.49" ry="18"/>
<text text-anchor="middle" x="243.5" y="-590.3" font-family="Times,serif" font-size="14.00">[root] root</text>
</g>
<!-- [root] root&#45;&gt;[root] var.all_cidr_block -->
<g id="edge36" class="edge">
<title>[root] root&#45;&gt;[root] var.all_cidr_block</title>
<path fill="none" stroke="black" d="M209.54,-579.34C184.48,-569.26 149.93,-555.36 121.42,-543.89"/>
<polygon fill="black" stroke="black" points="122.59,-540.58 112,-540.1 119.98,-547.08 122.59,-540.58"/>
</g>
<!-- [root] root&#45;&gt;[root] var.ec2_instance_type -->
<g id="edge37" class="edge">
<title>[root] root&#45;&gt;[root] var.ec2_instance_type</title>
<path fill="none" stroke="black" d="M243.5,-575.7C243.5,-567.98 243.5,-558.71 243.5,-550.11"/>
<polygon fill="black" stroke="black" points="247,-550.1 243.5,-540.1 240,-550.1 247,-550.1"/>
</g>
<!-- [root] root&#45;&gt;[root] provider[&quot;registry.terraform.io/hashicorp/aws&quot;] (close) -->
<g id="edge35" class="edge">
<title>[root] root&#45;&gt;[root] provider[&quot;registry.terraform.io/hashicorp/aws&quot;] (close)</title>
<path fill="none" stroke="black" d="M292.85,-584.28C353.99,-573.47 459.7,-554.78 538.35,-540.88"/>
<polygon fill="black" stroke="black" points="539.05,-544.31 548.29,-539.12 537.83,-537.42 539.05,-544.31"/>
</g>
</g>
</svg>
